PathFileType	4	(X/Y/Z)	C:/Users/beibeiliu/ov580/test_trc/User3\out3_training_dense_left.trc
DataRate	CameraRate	NumFrames	NumMarkers	Units	OrigDataRate	OrigDataStartFrame	OrigNumFrames
120	120	10	19	mm	120	1	500
Frame#	Time	ThumbCMC			ThumbMCP			ThumbIP			ThumbTip			IndexMCP			IndexPIP			IndexTip			MiddleMCP			MiddlePIP			MiddleTip			RingMCP			RingPIP			RingTip			PinkyMCP			PinkyPIP			PinkyTip			BackHand1			BackHand2			BackHand3	
		X0	Y0	Z0	X1	Y1	Z1	X2	Y2	Z2	X3	Y3	Z3	X4	Y4	Z4	X5	Y5	Z5	X6	Y6	Z6	X7	Y7	Z7	X8	Y8	Z8	X9	Y9	Z9	X10	Y10	Z10	X11	Y11	Z11	X12	Y12	Z12	X13	Y13	Z13	X14	Y14	Z14	X15	Y15	Z15	X16	Y16	Z16	X17	Y17	Z17	X18	Y18	Z18	
0	0	-89.0181	47.0465	48.7389	-69.1808	40.621	28.0151	-47.8136	37.4183	6.0777	-35.4759	31.1997	-16.1293	-109.243	67.6215	-26.1002	-100.316	69.656	-52.608	-93.6647	64.8301	-83.3555	-131.88	68.0791	-32.7966	-130.753	69.0444	-62.9291	-128.376	58.3942	-94.6516	-150.877	58.2467	-28.2613	-154.505	58.1732	-51.672	-156.658	47.8112	-78.7459	-173.215	41.9898	-13.4464	-178.54	38.5406	-32.608	-179.614	31.3841	-57.7883	-152.735	62.5253	22.6986	-154.432	59.3857	57.4143	-121.926	67.6731	38.5034	
1	0.00833333	-91.3248	46.2835	46.0989	-69.1595	41.5686	26.7091	-53.7974	36.4104	4.29446	-37.7458	30.0246	-16.4956	-110.681	68.0288	-27.7537	-102.82	70.1697	-57.2484	-96.8128	63.7269	-84.6193	-132.094	68.4562	-35.6576	-130.815	69.025	-60.8048	-129.549	57.8511	-95.0098	-156.203	57.4214	-26.5022	-154.386	57.4056	-52.4165	-156.795	45.8551	-83.8821	-171.112	41.5253	-10.082	-180.354	37.7852	-37.9247	-183.739	31.1708	-57.1768	-155.56	60.3421	25.9733	-154.619	60.8089	54.5011	-121.878	66.9461	36.3755	
2	0.0166667	-91.7707	45.2949	48.0104	-71.4262	40.6169	29.1345	-49.9149	36.3548	2.09554	-40.7426	29.5667	-12.8715	-105.654	69.1765	-30.6228	-103.512	70.0388	-54.8622	-93.9083	65.7838	-80.2448	-134.763	68.2158	-32.229	-131.372	68.9014	-61.7925	-127.082	59.5467	-93.2738	-151.314	58.1635	-24.4995	-155.131	56.5167	-56.5655	-158.182	45.8343	-82.4858	-173.204	42.9745	-11.0815	-180.618	38.0667	-35.606	-181.624	29.7943	-56.7589	-156.421	61.299	25.6697	-153.814	59.4602	54.184	-123.38	66.0251	39.3023	
3	0.025	-88.4526	47.4951	44.1238	-71.4889	41.4755	26.4241	-51.8195	36.8826	4.17806	-39.8341	30.1013	-11.125	-108.529	69.0989	-29.9759	-99.1761	71.5647	-57.4677	-99.4466	65.9693	-79.3286	-132.609	68.6769	-30.5232	-131.919	69.4101	-63.6029	-130.061	59.2944	-93.6619	-151.356	59.3948	-26.8529	-156.298	57.2799	-54.9467	-156.636	49.1681	-77.8687	-168.631	43.4224	-9.99126	-177.044	41.5169	-35.4294	-183.015	32.539	-57.1742	-154.669	61.4177	22.8739	-157.773	59.7663	53.4131	-122.149	67.5648	36.6536	
4	0.0333333	-93.2002	45.8222	47.477	-70.0745	41.9571	25.1062	-49.5755	37.1289	6.13575	-37.2481	30.5185	-12.5207	-106.311	69.4248	-26.1354	-101.448	72.0423	-52.3974	-95.0176	67.871	-78.5612	-130.86	71.2309	-35.5354	-129.327	69.0064	-65.4598	-127.938	60.9625	-92.1888	-156.027	57.4436	-25.8908	-155.326	57.8766	-56.2288	-158.267	46.5052	-81.5918	-174.415	42.4541	-11.8535	-175.778	41.2929	-33.9159	-183.069	32.3982	-57.3253	-155.957	62.6681	23.9588	-152.581	61.4563	52.2515	-123.041	66.4343	36.6766	
5	0.0416667	-92.5314	47.2249	43.5399	-71.4589	42.7522	25.8673	-51.754	38.333	2.15083	-36.9893	31.3151	-13.5731	-105.861	69.475	-24.9577	-104.115	71.3144	-56.64	-95.941	67.711	-78.5354	-134.969	69.6857	-34.8157	-130.462	70.3403	-62.6957	-130.959	59.9411	-93.0259	-156.787	57.9088	-25.8187	-158.474	57.3198	-55.6277	-160.069	47.9221	-78.6747	-172.43	44.2418	-11.324	-176.318	42.0169	-31.945	-182.713	31.1849	-55.8841	-152.753	62.7515	27.3694	-155.011	60.2427	54.2499	-120.076	67.3057	38.0604	
6	0.05	-90.153	48.105	44.3321	-68.8609	42.9918	25.5738	-53.514	36.238	6.18997	-39.9562	31.19	-12.7263	-109.8	70.187	-30.0417	-101.199	71.7767	-52.2132	-98.57	67.2534	-78.9599	-135.922	69.6562	-35.2405	-130.441	70.4086	-60.2471	-129.189	60.7785	-94.9433	-152.117	58.627	-23.5237	-157.346	58.1715	-52.4658	-156.839	48.9914	-82.482	-174.65	43.4614	-11.2277	-178.955	40.3616	-36.9338	-182.799	31.886	-57.4392	-151.347	60.9919	27.5865	-156.343	60.0481	56.1754	-123.487	68.329	39.7639	
7	0.0583333	-90.7753	47.5751	49.0252	-70.053	41.9119	28.4546	-49.2752	38.3391	3.39683	-36.4342	31.6017	-11.9688	-108.654	70.8221	-28.4541	-100.126	71.7703	-56.9283	-99.4184	67.7452	-79.3412	-133.862	69.9173	-34.918	-131.27	69.9614	-61.1831	-125.526	59.7387	-97.1567	-151.896	59.5216	-24.7942	-159.46	57.6566	-52.8778	-159.213	49.1038	-78.6889	-174.583	45.2047	-13.6046	-177.597	41.6944	-33.6315	-181.468	31.199	-60.1407	-156.611	60.6807	27.6545	-156.145	60.3269	54.1695	-120.542	69.7028	38.8518	
8	0.0666667	-91.07	46.684	45.9975	-70.9727	41.6985	25.35	-54.1196	37.1795	4.05887	-38.8638	31.8114	-16.4112	-108.584	70.0537	-26.1787	-101.539	72.1418	-57.7632	-93.953	66.2387	-83.3024	-133.24	69.7639	-31.5247	-133.768	69.4532	-64.7963	-128.309	60.1569	-94.6694	-154.071	59.7883	-26.4352	-158.961	58.3693	-52.5488	-156.121	49.228	-81.3849	-174.177	44.1082	-9.23044	-177.733	42.4232	-32.561	-182.979	32.6961	-58.1969	-153.906	61.042	25.695	-156.536	59.308	56.8997	-121.955	66.8124	39.4377	
9	0.075	-93.6418	46.139	47.8561	-67.7284	42.3409	27.2274	-50.0884	38.4928	7.34841	-41.8966	30.9084	-12.8585	-107.515	70.0276	-27.0559	-104.578	72.2445	-52.7044	-98.4698	68.1135	-80.4808	-132.1	71.091	-33.1964	-130.12	71.497	-61.9656	-128.256	61.6814	-92.6983	-151.254	61.5197	-26.9747	-160.183	59.787	-50.3574	-158.339	50.1656	-78.9506	-170.01	45.3904	-8.40047	-179.713	42.5253	-34.433	-182.09	34.1751	-56.5367	-156.814	61.5551	27	-156.551	61.1427	53.5028	-121.095	67.4096	40.7108	
